<svg width="184" height="50" viewBox="0 0 184 50" fill="none" xmlns="http://www.w3.org/2000/svg">
<g clip-path="url(#clip0_2072_3692)">
<path fill-rule="evenodd" clip-rule="evenodd" d="M17.2885 20.306L12.7994 12.5327L19.0304 8.93375L21.4629 13.1466L25.0081 7L31.2698 10.6143L27.7246 16.7608H32.5897V23.951H23.6115C20.5037 23.9587 18.8462 23.0071 17.2885 20.306Z" fill="#F37021"/>
<path fill-rule="evenodd" clip-rule="evenodd" d="M15.3856 21.4032L10.8965 13.6376L4.66555 17.2365L7.09808 21.4493H0V28.6778H7.09808L4.66555 32.8906L10.8965 36.4895L15.3856 28.7162C16.9433 26.0151 16.9433 24.1044 15.3856 21.4032Z" fill="#F37021"/>
<path fill-rule="evenodd" clip-rule="evenodd" d="M23.6115 26.1533H32.582V33.3434H27.7169L31.2621 39.49L25.0005 43.1043L21.4629 36.9654L19.0304 41.1782L12.7994 37.5793L17.2885 29.8059C18.8462 27.1125 20.5037 26.1533 23.6115 26.1533Z" fill="#F37021"/>
<path fill-rule="evenodd" clip-rule="evenodd" d="M65.4328 13.0238H72.8609V37.0959H64.7192V26.6061L56.8 37.0959L48.8809 26.6061V37.0959H40.7315V13.0238H48.1596L56.8 24.4728L65.4328 13.0238Z" fill="#F37021"/>
<path fill-rule="evenodd" clip-rule="evenodd" d="M89.6661 19.3392C92.7509 19.3392 95.2525 21.9022 95.2525 25.056C95.2525 28.2176 92.7509 30.7729 89.6661 30.7729C86.5813 30.7729 84.0797 28.2099 84.0797 25.056C84.0797 21.9022 86.5813 19.3392 89.6661 19.3392ZM89.6661 12.172C97.2477 12.172 103.394 17.9426 103.394 25.056C103.394 32.1695 97.2477 37.94 89.6661 37.94C82.0846 37.94 75.938 32.1695 75.938 25.056C75.938 17.9426 82.0846 12.172 89.6661 12.172Z" fill="#F37021"/>
<path fill-rule="evenodd" clip-rule="evenodd" d="M168.804 27.5193V30.8496H173.907C176.186 30.8496 176.186 27.5193 173.907 27.5193H168.804ZM172.472 19.2701H168.804V22.3089H172.472C174.759 22.3089 174.759 19.2701 172.472 19.2701ZM173.554 13.0238C182.371 13.0238 183.115 20.237 180.721 23.6441C186.108 26.7903 185.141 37.0882 175.702 37.0882H160.655V13.0238H173.554Z" fill="#F37021"/>
<path fill-rule="evenodd" clip-rule="evenodd" d="M147.924 37.0959H156.074V13.0238H148.638L138.516 25.1021V13.0238H130.367V37.0959H137.795L147.924 25.0177V37.0959Z" fill="#F37021"/>
<path fill-rule="evenodd" clip-rule="evenodd" d="M127.136 13.0238V20.4595H119.992V37.0959H111.843V20.4595H104.706V13.0238H127.136Z" fill="#F37021"/>
</g>
<defs>
<clipPath id="clip0_2072_3692">
<rect width="184" height="50" fill="white"/>
</clipPath>
</defs>
</svg>
